# xmcd
#
# Track frame offsets: 
#        150
#        20782
#        37930
#        55275
#        78311
#        100330
#        118041
#        136428
#        156878
#        183657
#        204983
#        220714
#        239277
#
# Disc length: 3532 seconds
#
# Revision: 0
# Processed by: cddbd v1.5.2PL0 Copyright (c) Steve Scherf et al.
# Submitted via: ExactAudioCopy v1.3
#
DISCID=b20dca0d
DTITLE=Various Artist - House Of Blues Indian Summer'98 Sampler
DYEAR=1998
DGENRE=Blues
TTITLE0=Any Place I'm Going (Beats Any Place I've Been) - Otis Rush
TTITLE1=Cut You Loose - Angela Strehli
TTITLE2=Sweat'n Bones - John Mooney
TTITLE3=Stranger Blues - Canned Heat
TTITLE4=Born To Play The Blues - Larry McCray
TTITLE5=It Takes A Lot To Laugh, It Takes A Train To Cry - Phoebe Snow
TTITLE5=(With Michael McDonald)
TTITLE6=Keep The Money - Larry Garner
TTITLE7=Castle - Luther Allison
TTITLE8=The Right Time - Otis Rush
TTITLE9=Same Old Blues - Larry McCray
TTITLE10=A Stand By Your Woman Man - Angela Strehli
TTITLE11=A Case Of You - Phoebe Snow
TTITLE12=Marie's Mood - Walter Trout
EXTD=
EXTT0=
EXTT1=
EXTT2=
EXTT3=
EXTT4=
EXTT5=
EXTT6=
EXTT7=
EXTT8=
EXTT9=
EXTT10=
EXTT11=
EXTT12=
PLAYORDER=
